# xmcd
#
# Track frame offsets: 
#        187
#        15135
#        32460
#        52100
#        68845
#        83892
#        102867
#        121827
#        137975
#        152590
#        166730
#        179935
#        196455
#        213612
#        229725
#
# Disc length: 3355 seconds
#
# Revision: 0
# Processed by: cddbd v1.5.2PL0 Copyright (c) Steve Scherf et al.
# Submitted via: ExactAudioCopy v1.0b3
#
DISCID=c80d190f
DTITLE=The Stylistics - The Stylistics Disc 3 Can't Give You Anything 
DTITLE=(Disco Hits) VICG-58201-5
DYEAR=1900
DGENRE=Blues
TTITLE0=Can't Give You Anything (But My Love)
TTITLE1=Thank You Baby
TTITLE2=I'm Gonna Win
TTITLE3=I'd Rather Be Hurt By You (Than Be Loved By Somebody Eles)
TTITLE4=Disco Baby
TTITLE5=From The Mountain
TTITLE6=Tears And Souvenirs
TTITLE7=A Honky Tonk Cafe
TTITLE8=What Goes Around Comes Around
TTITLE9=Stay
TTITLE10=Sing Baby Shig
TTITLE11=I Got A Letter
TTITLE12=We Can Make It Happen Again
TTITLE13=Keeping My Fingers Crossed
TTITLE14=I Got Time On My Hands
EXTD=
EXTT0=
EXTT1=
EXTT2=
EXTT3=
EXTT4=
EXTT5=
EXTT6=
EXTT7=
EXTT8=
EXTT9=
EXTT10=
EXTT11=
EXTT12=
EXTT13=
EXTT14=
PLAYORDER=
